<?xml version="1.0" standalone="no"?>
<!DOCTYPE svg PUBLIC "-//W3C//DTD SVG 20010904//EN"
 "http://www.w3.org/TR/2001/REC-SVG-20010904/DTD/svg10.dtd">
<svg version="1.0" xmlns="http://www.w3.org/2000/svg"
 width="200.000000pt" height="200.000000pt" viewBox="0 0 200.000000 200.000000"
 preserveAspectRatio="xMidYMid meet">
<metadata>
Created by potrace 1.11, written by Peter Selinger 2001-2013
</metadata>
<g transform="translate(0.000000,200.000000) scale(0.100000,-0.100000)"
fill="#000000" stroke="none">
<path d="M925 1953 c-273 -32 -501 -155 -661 -356 -432 -542 -162 -1346 511
-1523 141 -37 327 -38 465 -1 177 46 325 130 446 251 462 465 335 1238 -251
1533 -146 74 -360 114 -510 96z m65 -67 c0 -21 -10 -28 -72 -52 -99 -37 -164
-70 -217 -110 -28 -22 -55 -34 -75 -34 -17 0 -73 -7 -125 -15 -52 -9 -96 -13
-99 -10 -19 19 128 114 268 174 121 51 190 70 263 70 54 1 57 0 57 -23z m217
9 c170 -36 363 -136 363 -187 0 -17 -4 -19 -27 -13 -16 4 -70 8 -122 10 -83 3
-96 6 -120 28 -30 29 -74 51 -188 97 -72 28 -83 36 -83 56 0 22 4 24 54 24 30
0 85 -7 123 -15z m370 -262 c76 -42 223 -285 223 -369 0 -21 -113 -184 -128
-184 -10 0 -192 29 -225 36 -20 4 -32 16 -42 42 -9 19 -45 86 -80 147 -36 61
-65 121 -65 134 0 12 16 54 36 94 63 124 53 117 158 117 68 0 99 -4 123 -17z
m-872 -72 c68 -118 68 -124 -8 -271 -35 -69 -66 -134 -69 -146 -5 -18 -16 -22
-69 -28 -35 -4 -103 -16 -151 -27 -48 -10 -94 -19 -102 -19 -19 0 -96 162 -96
201 0 52 130 271 197 332 26 23 84 35 175 36 l76 1 47 -79z m414 -148 l91 -6
36 -56 c19 -31 56 -98 81 -148 l46 -92 -50 -103 c-28 -57 -71 -130 -96 -164
l-45 -61 -76 -7 c-42 -4 -110 -4 -152 0 l-76 7 -106 159 -106 160 18 51 c21
60 110 230 129 245 21 18 168 25 306 15z m758 -194 c35 -12 41 -29 50 -154 7
-104 -12 -272 -42 -359 -13 -37 -26 -71 -30 -74 -3 -3 -29 5 -57 19 l-51 25 1
125 c2 78 -3 148 -12 189 -14 61 -14 66 5 90 10 14 37 53 60 88 23 34 43 62
44 62 1 0 16 -5 32 -11z m-1690 -36 c8 -21 27 -63 41 -93 25 -51 26 -63 23
-170 -2 -80 2 -136 13 -183 9 -38 16 -72 16 -77 0 -5 -19 -19 -41 -31 -50 -25
-57 -20 -87 62 -74 201 -67 529 10 529 5 0 16 -17 25 -37z m1083 -543 c36 -50
74 -105 85 -124 l19 -33 -57 -96 c-31 -53 -68 -105 -82 -115 -37 -29 -146 -44
-293 -40 -107 2 -133 6 -149 21 -32 28 -126 216 -116 230 5 7 51 65 102 130
l93 117 166 0 167 0 65 -90z m550 -61 c0 -4 -22 -41 -50 -81 -90 -136 -238
-264 -371 -322 l-56 -25 -38 39 -37 38 37 51 c21 29 56 86 79 127 l41 76 68
23 c75 26 166 77 199 112 l20 22 54 -27 c30 -14 54 -29 54 -33z m-1470 2 c48
-39 112 -70 195 -96 l70 -21 68 -124 69 -123 -35 -35 -35 -34 -53 24 c-132 62
-316 221 -387 336 l-32 52 23 14 c71 44 73 44 117 7z"/>
</g>
</svg>
